# xmcd
#
# Track frame offsets: 
#        182
#        22280
#        37207
#        46727
#        66080
#        101107
#        117532
#        142430
#        165232
#        183232
#        204755
#        227180
#
# Disc length: 3276 seconds
#
# Revision: 0
# Processed by: cddbd v1.4PL0 Copyright (c) Steve Scherf et al.
# Submitted via: ExactAudioCopy v0.90b4
#
DISCID=af0cca0c
DTITLE=Harpin' Momma (Adele Meredith) - Blues for your Soul
DYEAR=2002
DGENRE=Blues
TTITLE0=Midnite Special
TTITLE1=Going to Chicago
TTITLE2=Mercedes Benz
TTITLE3=Little Light of Mine
TTITLE4=Stormy Monday
TTITLE5=Stranger Blues
TTITLE6=Georgia on my Mind
TTITLE7=Ball 'n' Chain
TTITLE8=Don't Mess with the Messer
TTITLE9=She's a Woman
TTITLE10=Coming Home
TTITLE11=(Unknown)
EXTD=
EXTT0=
EXTT1=
EXTT2=
EXTT3=
EXTT4=
EXTT5=
EXTT6=
EXTT7=
EXTT8=
EXTT9=
EXTT10=
EXTT11=
PLAYORDER=
